:SAMPLES-PER-SECOND 30
:FULLY-SPECIFIED
:DEGREES
362
root  -4.25933 39.9473 -2.8867 43.8743 -86.4028 -47.7363
RightUpLeg  2.50151 3.25453 -0.100337
RightLeg  40.894 -8.46212 -8.10495
RightFoot  19.9391 -2.15868 8.23401
RightToes  7.56698e-010 0 -3.6325e-017
Spine  11.1267 -0.538243 9.96942
Spine1  6.57368 0.951506 -3.15845
HEad  -8.9542 6.51102 -3.06306
LeftShoulder1  3.15555 -9.6662 -17.3119
LeftArm  -17.0913 -13.5997 -58.5986
LeftForeArm  24.833 -60.997 -18.1109
LeftHand  -1.63626 -1.55768 27.1739
RightShoulder  1.77771 4.54857 15.3346
RightArm  -31.993 19.4387 55.9183
RightForeArm  24.0942 69.6132 30.0483
RightHand  -1.83501 6.69338 -17.7991
LeftUpLeg  -18.1055 -2.51549 -8.68401
LeftLeg  23.4748 -0.910442 -0.184278
LeftFoot  17.4402 1.66254 -6.98504
LeftToes  -3.13779e-010 -2.47553e-011 -5.36621e-011
363
root  -3.78333 40.887 -2.2358 44.3344 -87.856 -48.6888
RightUpLeg  -5.69853 2.0185 -1.55432
RightLeg  47.9424 -9.98706 -11.9308
RightFoot  29.1821 -1.22423 3.7714
RightToes  7.56698e-010 0 -3.6325e-017
Spine  14.0282 -1.94288 5.47169
Spine1  5.83431 -2.92159 5.27442
HEad  -11.5207 14.1859 -11.1377
LeftShoulder1  3.30173 -10.2423 -17.3824
LeftArm  -16.6718 -17.4209 -56.5752
LeftForeArm  16.4452 -45.1668 -10.0072
LeftHand  -1.84979 -1.6048 30.3398
RightShoulder  1.69278 4.67838 13.7925
RightArm  -28.9732 28.0189 56.3736
RightForeArm  9.84075 51.0471 12.8119
RightHand  -2.29721 8.61522 -19.1999
LeftUpLeg  -15.2278 -5.91652 -8.03268
LeftLeg  22.1772 -3.06479 -1.06728
LeftFoot  19.4433 3.76145 -14.1664
LeftToes  -3.13779e-010 -2.47553e-011 -5.36621e-011
364
root  -3.45434 41.6106 -1.56622 26.1266 -89.2319 -31.8459
RightUpLeg  -12.6322 0.213206 -1.84927
RightLeg  52.543 -9.07706 -12.7831
RightFoot  27.7826 -0.461615 1.84646
RightToes  7.56698e-010 0 -3.6325e-017
Spine  15.9283 -2.93051 1.89557
Spine1  7.74457 -6.1009 11.5835
HEad  -15.6936 19.5429 -17.7105
LeftShoulder1  3.30465 -10.8341 -16.3222
LeftArm  -12.6047 -24.4404 -54.3173
LeftForeArm  10.8624 -30.5846 -5.99307
LeftHand  -1.87114 -1.38374 31.5939
RightShoulder  1.51857 4.35931 12.2743
RightArm  -27.4571 37.8791 56.9278
RightForeArm  5.70975 34.6222 7.25974
RightHand  -2.62353 9.50349 -20.5876
LeftUpLeg  -12.5671 -9.222 -8.03702
LeftLeg  29.7916 -3.02514 -1.51359
LeftFoot  15.9281 3.32344 -13.9496
LeftToes  -3.13779e-010 -2.47553e-011 -5.36621e-011
365
root  -3.38893 41.9239 -0.777944 176.022 -87.3456 177.256
RightUpLeg  -19.3334 -0.0652542 -1.39375
RightLeg  53.6885 -6.43124 -9.72282
RightFoot  22.4102 -0.82215 3.29188
RightToes  7.56698e-010 0 -3.6325e-017
Spine  16.5244 -3.31729 1.73903
Spine1  9.10585 -7.03575 12.8362
HEad  -18.5934 23.1147 -22.2298
LeftShoulder1  3.0974 -10.9303 -14.5775
LeftArm  -8.25032 -29.4417 -52.9429
LeftForeArm  7.00857 -22.2956 -4.42962
LeftHand  -1.76885 -0.902164 32.1288
RightShoulder  1.3866 3.97473 11.4261
RightArm  -27.6823 43.3593 58.7505
RightForeArm  4.63937 26.3309 5.359
RightHand  -2.64746 9.54771 -20.6989
LeftUpLeg  -8.19066 -9.76907 -8.95545
LeftLeg  37.1504 -1.94745 -1.17313
LeftFoot  11.3498 1.6957 -8.78433
LeftToes  -3.13779e-010 -2.47553e-011 -5.36621e-011
366
root  -3.57022 41.8242 0.0415053 -173.85 -81.5217 167.747
RightUpLeg  -26.5653 1.72129 -0.387223
RightLeg  51.29 -4.82944 -6.79636
RightFoot  20.4019 -2.26655 8.38164
RightToes  7.56698e-010 0 -3.6325e-017
Spine  16.3392 -3.0423 3.54562
Spine1  7.69069 -5.67671 10.6425
HEad  -20.0043 26.4427 -25.6399
LeftShoulder1  3.00957 -10.5056 -14.6151
LeftArm  -11.434 -28.8317 -51.2474
LeftForeArm  8.61577 -24.1926 -4.87533
LeftHand  -1.60979 -0.210149 32.8043
RightShoulder  1.38887 3.93185 11.5729
RightArm  -28.0629 42.4949 60.6823
RightForeArm  5.62012 28.7321 5.91383
RightHand  -2.58187 9.64871 -20.0784
LeftUpLeg  -2.72355 -7.03743 -10.5057
LeftLeg  37.7901 1.37096 1.44854
LeftFoot  9.3349 0.513573 -3.18672
LeftToes  -3.13779e-010 -2.47553e-011 -5.36621e-011
367
root  -4.02374 41.3424 0.741522 -170.774 -74.729 166.553
RightUpLeg  -32.8753 4.06964 1.09388
RightLeg  46.4184 -5.18922 -6.10207
RightFoot  23.6902 -4.36458 14.2532
RightToes  7.56698e-010 0 -3.6325e-017
Spine  15.6076 -2.31781 4.39814
Spine1  4.60149 -3.7202 8.39553
HEad  -21.8313 30.1009 -29.3886
LeftShoulder1  3.09748 -9.66848 -16.8508
LeftArm  -20.359 -22.5897 -48.6317
LeftForeArm  14.5468 -38.483 -8.01825
LeftHand  -1.55114 -0.0919043 32.3453
RightShoulder  1.52761 4.26088 12.6725
RightArm  -26.6205 38.0694 61.683
RightForeArm  7.54222 40.1852 9.02883
RightHand  -2.50112 9.73634 -19.3644
LeftUpLeg  2.93556 -1.82694 -12.0157
LeftLeg  32.2085 7.15342 5.14299
LeftFoot  8.5184 0.027529 -0.43624
LeftToes  -3.13779e-010 -2.47553e-011 -5.36621e-011
368
root  -4.6315 40.3632 1.21464 -165.689 -69.7691 163.219
RightUpLeg  -36.4047 6.06843 2.06893
RightLeg  42.4769 -6.02854 -6.16595
RightFoot  27.6721 -5.7142 16.7187
RightToes  7.56698e-010 0 -3.6325e-017
Spine  13.9391 -2.11399 2.98781
Spine1  2.71208 -3.20901 8.1791
HEad  -24.8037 33.561 -33.2051
LeftShoulder1  3.04694 -8.33256 -19.2414
LeftArm  -27.1313 -14.5263 -45.851
LeftForeArm  24.4431 -61.4549 -20.2598
LeftHand  -1.45327 -0.251276 29.4743
RightShoulder  1.72438 4.63537 14.3497
RightArm  -24.9923 33.6876 62.4131
RightForeArm  13.2159 56.6062 16.4538
RightHand  -2.20459 8.84867 -18.1567
LeftUpLeg  8.60784 3.10509 -12.8865
LeftLeg  24.5845 9.25863 5.05555
LeftFoot  4.782 0.142635 -1.35626
LeftToes  -3.13779e-010 -2.47553e-011 -5.36621e-011
369
root  -5.0719 38.998 1.43974 -158.248 -68.0028 156.697
RightUpLeg  -37.2459 8.31009 1.16001
RightLeg  41.8888 -5.96547 -5.97094
RightFoot  25.0461 -3.87454 12.0388
RightToes  7.56698e-010 0 -3.6325e-017
Spine  11.4762 -2.78958 0.111322
Spine1  2.72283 -4.44471 9.03667
HEad  -26.7958 35.9097 -34.7929
LeftShoulder1  2.71528 -6.91195 -19.5708
LeftArm  -30.6263 -9.43083 -43.475
LeftForeArm  71.7551 -79.1915 -72.9017
LeftHand  -1.02423 0.986804 26.8622
RightShoulder  1.86198 4.7403 15.8932
RightArm  -24.1906 30.423 64.3051
RightForeArm  31.6399 72.6267 36.6726
RightHand  -1.70557 6.78326 -16.4737
LeftUpLeg  12.8021 4.83429 -13.1592
LeftLeg  19.7305 0.283395 0.264593
LeftFoot  -3.28536 0.302651 -4.16946
LeftToes  -3.13779e-010 -2.47553e-011 -5.36621e-011
370
root  -5.32731 37.4916 1.51089 -150.174 -67.8398 149.092
RightUpLeg  -36.7369 10.7412 -0.574044
RightLeg  44.1455 -6.70971 -7.24535
RightFoot  12.7396 -0.219571 0.971873
RightToes  7.56698e-010 0 -3.6325e-017
Spine  8.76049 -3.43058 -2.13276
Spine1  3.39842 -5.53293 8.61394
HEad  -26.4143 36.2045 -33.6869
LeftShoulder1  2.34708 -6.03207 -18.0296
LeftArm  -32.8214 -9.05398 -41.3221
LeftForeArm  145.745 -70.2158 -150.405
LeftHand  -0.485309 3.28309 26.5058
RightShoulder  1.84395 4.4687 16.4811
RightArm  -23.8222 28.6017 66.5112
RightForeArm  90.494 79.5673 97.3835
RightHand  -1.26842 4.57041 -14.9907
LeftUpLeg  14.0334 3.30605 -14.2236
LeftLeg  20.4131 -12.5016 -4.63748
LeftFoot  -13.9287 0.0508856 -3.78306
LeftToes  -3.13779e-010 -2.47553e-011 -5.36621e-011
371
root  -5.56635 36.2377 1.55664 -146.645 -67.9054 145.594
RightUpLeg  -36.0498 11.7993 -0.609015
RightLeg  47.2409 -8.90259 -10.4622
RightFoot  -1.59282 0.805769 -8.53386
RightToes  7.56698e-010 0 -3.6325e-017
Spine  6.83495 -3.19692 -1.86434
Spine1  4.31128 -5.12547 6.53282
HEad  -26.0714 34.1981 -33.1838
LeftShoulder1  2.17771 -5.78961 -16.749
LeftArm  -35.1791 -11.0977 -39.687
LeftForeArm  157.628 -56.2523 -164.467
LeftHand  -0.0747675 5.07109 25.4927
RightShoulder  1.72995 4.08576 16.1175
RightArm  -23.585 29.083 66.3692
RightForeArm  130.037 74.604 138.643
RightHand  -1.0125 3.18641 -13.8987
LeftUpLeg  14.1313 0.00876978 -16.733
LeftLeg  23.4664 -13.1797 -5.34548
LeftFoot  -23.3093 0.248139 1.10896
LeftToes  -3.13779e-010 -2.47553e-011 -5.36621e-011
372
root  -5.61819 35.8727 1.46244 -147.892 -69.6947 146.021
RightUpLeg  -35.0263 9.64747 1.60854
RightLeg  48.3358 -9.62644 -11.6814
RightFoot  -6.35945 0.459837 -10.9707
RightToes  7.56698e-010 0 -3.6325e-017
Spine  6.69051 -2.75444 -0.542764
Spine1  5.93811 -4.67736 5.58301
HEad  -27.5803 31.3873 -34.7397
LeftShoulder1  2.19296 -5.82182 -16.829
LeftArm  -35.9576 -11.9419 -40.2423
LeftForeArm  158.525 -49.6786 -167.439
LeftHand  0.0875585 5.83943 23.3245
RightShoulder  1.66238 3.9676 15.5259
RightArm  -23.8903 30.5622 63.8607
RightForeArm  132.888 72.884 143.036
RightHand  -0.960133 2.88908 -13.6434
LeftUpLeg  14.9064 -3.35992 -17.7907
LeftLeg  25.4436 -5.66468 -2.35643
LeftFoot  -26.8527 0.605807 3.40261
LeftToes  -3.13779e-010 -2.47553e-011 -5.36621e-011
